<?xml version="1.0" encoding="UTF-8"?>
<svg xmlns="http://www.w3.org/2000/svg" version="1.1" width="200" height="200" viewBox="0 0 200 200"><rect x="0" y="0" width="200" height="200" fill="#ffffff"/><g transform="scale(5.405)"><g transform="translate(0,0)"><path fill-rule="evenodd" d="M9 0L9 1L11 1L11 2L9 2L9 3L8 3L8 5L9 5L9 6L8 6L8 7L9 7L9 9L8 9L8 8L5 8L5 10L4 10L4 9L2 9L2 8L0 8L0 13L2 13L2 14L0 14L0 16L1 16L1 15L5 15L5 14L4 14L4 13L5 13L5 12L6 12L6 13L7 13L7 14L6 14L6 15L7 15L7 16L6 16L6 17L5 17L5 16L4 16L4 17L3 17L3 16L2 16L2 18L1 18L1 19L0 19L0 20L1 20L1 21L0 21L0 23L1 23L1 24L0 24L0 29L1 29L1 25L2 25L2 26L3 26L3 27L2 27L2 29L3 29L3 27L4 27L4 28L5 28L5 29L7 29L7 28L8 28L8 32L9 32L9 33L10 33L10 32L11 32L11 31L12 31L12 33L13 33L13 32L14 32L14 34L15 34L15 35L14 35L14 36L13 36L13 37L15 37L15 35L18 35L18 34L17 34L17 33L19 33L19 34L20 34L20 35L19 35L19 36L18 36L18 37L20 37L20 35L21 35L21 34L22 34L22 36L23 36L23 37L25 37L25 35L26 35L26 36L27 36L27 37L29 37L29 36L30 36L30 37L31 37L31 36L30 36L30 35L28 35L28 34L27 34L27 35L26 35L26 34L25 34L25 35L24 35L24 36L23 36L23 34L24 34L24 33L21 33L21 29L19 29L19 28L17 28L17 29L19 29L19 30L15 30L15 29L12 29L12 27L13 27L13 26L10 26L10 25L14 25L14 23L17 23L17 22L18 22L18 25L19 25L19 26L20 26L20 28L21 28L21 27L23 27L23 26L24 26L24 28L25 28L25 30L24 30L24 29L23 29L23 28L22 28L22 31L24 31L24 32L25 32L25 33L30 33L30 34L31 34L31 35L32 35L32 34L31 34L31 33L33 33L33 32L34 32L34 35L33 35L33 36L32 36L32 37L33 37L33 36L34 36L34 35L36 35L36 37L37 37L37 33L36 33L36 31L37 31L37 30L36 30L36 31L35 31L35 30L33 30L33 28L34 28L34 29L35 29L35 27L36 27L36 28L37 28L37 26L36 26L36 25L37 25L37 22L36 22L36 21L37 21L37 18L36 18L36 17L37 17L37 14L36 14L36 13L37 13L37 12L36 12L36 11L37 11L37 10L36 10L36 9L35 9L35 10L33 10L33 9L34 9L34 8L32 8L32 10L33 10L33 11L32 11L32 12L33 12L33 14L34 14L34 16L32 16L32 14L30 14L30 13L31 13L31 12L29 12L29 14L30 14L30 17L29 17L29 15L28 15L28 11L29 11L29 10L30 10L30 11L31 11L31 10L30 10L30 9L29 9L29 8L28 8L28 9L27 9L27 8L23 8L23 5L26 5L26 7L27 7L27 5L26 5L26 3L27 3L27 4L29 4L29 2L28 2L28 3L27 3L27 2L26 2L26 1L27 1L27 0L25 0L25 2L26 2L26 3L24 3L24 2L22 2L22 1L23 1L23 0L20 0L20 1L21 1L21 5L22 5L22 9L23 9L23 10L24 10L24 9L25 9L25 11L26 11L26 12L27 12L27 13L26 13L26 15L28 15L28 17L27 17L27 16L25 16L25 15L23 15L23 14L24 14L24 13L25 13L25 12L24 12L24 11L22 11L22 12L24 12L24 13L22 13L22 14L20 14L20 13L21 13L21 6L20 6L20 7L19 7L19 6L18 6L18 8L17 8L17 10L18 10L18 13L19 13L19 14L18 14L18 16L17 16L17 14L15 14L15 12L17 12L17 11L14 11L14 12L13 12L13 13L12 13L12 14L13 14L13 15L12 15L12 17L13 17L13 16L14 16L14 17L16 17L16 19L15 19L15 18L12 18L12 19L11 19L11 18L10 18L10 17L11 17L11 16L10 16L10 15L11 15L11 14L10 14L10 15L9 15L9 12L12 12L12 11L13 11L13 10L11 10L11 8L10 8L10 7L11 7L11 4L12 4L12 5L13 5L13 6L12 6L12 9L13 9L13 8L14 8L14 10L15 10L15 9L16 9L16 8L14 8L14 7L15 7L15 5L16 5L16 7L17 7L17 5L16 5L16 3L17 3L17 4L19 4L19 5L20 5L20 4L19 4L19 2L18 2L18 0L17 0L17 2L16 2L16 0L13 0L13 1L12 1L12 0ZM13 1L13 2L12 2L12 4L14 4L14 2L15 2L15 3L16 3L16 2L15 2L15 1ZM17 2L17 3L18 3L18 2ZM9 3L9 5L10 5L10 3ZM22 3L22 4L23 4L23 3ZM28 5L28 7L29 7L29 5ZM9 6L9 7L10 7L10 6ZM13 6L13 7L14 7L14 6ZM24 6L24 7L25 7L25 6ZM19 8L19 9L18 9L18 10L19 10L19 11L20 11L20 10L19 10L19 9L20 9L20 8ZM6 9L6 10L5 10L5 11L6 11L6 12L7 12L7 13L8 13L8 12L9 12L9 11L10 11L10 9L9 9L9 10L8 10L8 9ZM1 10L1 12L2 12L2 13L3 13L3 12L2 12L2 10ZM3 10L3 11L4 11L4 10ZM6 10L6 11L8 11L8 10ZM35 10L35 11L33 11L33 12L34 12L34 13L35 13L35 11L36 11L36 10ZM19 12L19 13L20 13L20 12ZM7 14L7 15L8 15L8 16L9 16L9 15L8 15L8 14ZM19 14L19 15L20 15L20 14ZM15 15L15 16L16 16L16 17L17 17L17 18L18 18L18 19L17 19L17 20L19 20L19 21L18 21L18 22L19 22L19 24L20 24L20 25L21 25L21 26L23 26L23 24L22 24L22 23L21 23L21 21L22 21L22 19L23 19L23 17L24 17L24 18L26 18L26 19L24 19L24 20L27 20L27 17L24 17L24 16L23 16L23 17L22 17L22 15L21 15L21 17L22 17L22 18L20 18L20 19L19 19L19 17L20 17L20 16L19 16L19 17L17 17L17 16L16 16L16 15ZM35 15L35 17L36 17L36 15ZM31 16L31 17L30 17L30 18L31 18L31 19L29 19L29 17L28 17L28 19L29 19L29 21L30 21L30 22L31 22L31 21L32 21L32 19L34 19L34 20L33 20L33 22L34 22L34 25L33 25L33 23L31 23L31 24L32 24L32 27L31 27L31 28L32 28L32 27L33 27L33 26L34 26L34 27L35 27L35 26L34 26L34 25L36 25L36 23L35 23L35 22L34 22L34 20L36 20L36 18L33 18L33 17L32 17L32 16ZM4 17L4 19L3 19L3 18L2 18L2 21L3 21L3 22L2 22L2 23L4 23L4 25L5 25L5 26L4 26L4 27L5 27L5 26L7 26L7 25L6 25L6 24L9 24L9 25L8 25L8 26L9 26L9 27L10 27L10 28L9 28L9 30L10 30L10 31L11 31L11 30L12 30L12 31L14 31L14 32L15 32L15 33L16 33L16 32L19 32L19 33L20 33L20 34L21 34L21 33L20 33L20 31L15 31L15 30L12 30L12 29L11 29L11 27L10 27L10 26L9 26L9 25L10 25L10 21L11 21L11 24L12 24L12 23L13 23L13 22L12 22L12 21L14 21L14 22L16 22L16 20L14 20L14 19L12 19L12 21L11 21L11 19L10 19L10 18L8 18L8 17L6 17L6 18L5 18L5 17ZM6 18L6 19L7 19L7 18ZM4 19L4 21L7 21L7 22L4 22L4 23L8 23L8 22L9 22L9 21L10 21L10 20L5 20L5 19ZM20 19L20 21L19 21L19 22L20 22L20 21L21 21L21 19ZM30 20L30 21L31 21L31 20ZM25 21L25 22L23 22L23 23L25 23L25 24L24 24L24 26L25 26L25 28L27 28L27 29L28 29L28 27L29 27L29 24L30 24L30 23L27 23L27 24L26 24L26 23L25 23L25 22L27 22L27 21ZM20 23L20 24L21 24L21 23ZM15 24L15 25L16 25L16 26L17 26L17 27L18 27L18 26L17 26L17 24ZM27 24L27 27L28 27L28 24ZM30 25L30 26L31 26L31 25ZM6 27L6 28L7 28L7 27ZM15 27L15 28L16 28L16 27ZM10 29L10 30L11 30L11 29ZM29 29L29 32L32 32L32 29ZM27 30L27 32L28 32L28 30ZM30 30L30 31L31 31L31 30ZM25 31L25 32L26 32L26 31ZM34 31L34 32L35 32L35 31ZM35 33L35 34L36 34L36 33ZM9 34L9 35L8 35L8 37L9 37L9 36L10 36L10 35L11 35L11 36L12 36L12 35L13 35L13 34ZM0 0L0 7L7 7L7 0ZM1 1L1 6L6 6L6 1ZM2 2L2 5L5 5L5 2ZM30 0L30 7L37 7L37 0ZM31 1L31 6L36 6L36 1ZM32 2L32 5L35 5L35 2ZM0 30L0 37L7 37L7 30ZM1 31L1 36L6 36L6 31ZM2 32L2 35L5 35L5 32Z" fill="#000000"/></g></g></svg>
