<?xml version="1.0" encoding="UTF-8"?>
<svg xmlns="http://www.w3.org/2000/svg" version="1.1" width="200" height="200" viewBox="0 0 200 200"><rect x="0" y="0" width="200" height="200" fill="#ffffff"/><g transform="scale(5.405)"><g transform="translate(0,0)"><path fill-rule="evenodd" d="M9 0L9 1L8 1L8 2L9 2L9 3L8 3L8 4L10 4L10 7L11 7L11 4L12 4L12 5L13 5L13 6L12 6L12 9L13 9L13 8L14 8L14 9L18 9L18 8L14 8L14 7L15 7L15 6L16 6L16 7L17 7L17 5L14 5L14 4L12 4L12 2L13 2L13 1L11 1L11 2L10 2L10 0ZM14 0L14 1L15 1L15 4L18 4L18 7L19 7L19 10L20 10L20 8L22 8L22 9L21 9L21 10L22 10L22 9L23 9L23 10L24 10L24 12L25 12L25 14L26 14L26 16L24 16L24 15L23 15L23 14L24 14L24 13L23 13L23 11L21 11L21 12L20 12L20 11L18 11L18 12L16 12L16 10L15 10L15 11L14 11L14 12L15 12L15 13L12 13L12 11L13 11L13 10L10 10L10 9L11 9L11 8L6 8L6 9L5 9L5 8L0 8L0 9L2 9L2 10L1 10L1 11L2 11L2 10L3 10L3 11L5 11L5 10L6 10L6 11L7 11L7 10L8 10L8 11L9 11L9 12L8 12L8 13L7 13L7 12L6 12L6 13L5 13L5 14L4 14L4 13L3 13L3 12L2 12L2 13L1 13L1 12L0 12L0 15L1 15L1 16L0 16L0 20L1 20L1 21L0 21L0 23L1 23L1 24L2 24L2 25L0 25L0 29L1 29L1 26L3 26L3 25L4 25L4 27L3 27L3 28L2 28L2 29L7 29L7 28L5 28L5 26L6 26L6 27L7 27L7 26L6 26L6 25L10 25L10 27L9 27L9 26L8 26L8 27L9 27L9 29L8 29L8 31L9 31L9 32L8 32L8 37L12 37L12 35L13 35L13 34L10 34L10 31L11 31L11 30L9 30L9 29L10 29L10 27L11 27L11 29L12 29L12 30L13 30L13 31L12 31L12 33L13 33L13 32L14 32L14 33L19 33L19 34L20 34L20 37L21 37L21 36L22 36L22 37L26 37L26 36L29 36L29 37L32 37L32 36L33 36L33 37L37 37L37 32L36 32L36 31L37 31L37 30L35 30L35 28L34 28L34 29L33 29L33 27L31 27L31 26L32 26L32 25L35 25L35 27L36 27L36 28L37 28L37 26L36 26L36 25L37 25L37 22L36 22L36 21L37 21L37 18L36 18L36 17L37 17L37 14L36 14L36 13L37 13L37 12L36 12L36 11L37 11L37 10L36 10L36 8L35 8L35 9L34 9L34 8L33 8L33 11L30 11L30 10L29 10L29 9L30 9L30 8L29 8L29 4L28 4L28 5L27 5L27 6L26 6L26 8L25 8L25 6L24 6L24 8L22 8L22 7L23 7L23 5L24 5L24 4L27 4L27 3L29 3L29 2L28 2L28 1L29 1L29 0L28 0L28 1L26 1L26 0L25 0L25 1L24 1L24 0L22 0L22 1L21 1L21 0L19 0L19 1L20 1L20 2L18 2L18 3L16 3L16 2L17 2L17 1L15 1L15 0ZM22 1L22 2L24 2L24 3L21 3L21 2L20 2L20 3L18 3L18 4L20 4L20 3L21 3L21 7L22 7L22 5L23 5L23 4L24 4L24 3L27 3L27 2L26 2L26 1L25 1L25 2L24 2L24 1ZM10 3L10 4L11 4L11 3ZM8 5L8 7L9 7L9 5ZM19 5L19 7L20 7L20 5ZM13 6L13 7L14 7L14 6ZM27 6L27 7L28 7L28 6ZM31 8L31 9L32 9L32 8ZM4 9L4 10L5 10L5 9ZM6 9L6 10L7 10L7 9ZM24 9L24 10L25 10L25 12L26 12L26 14L28 14L28 15L27 15L27 16L28 16L28 17L27 17L27 18L26 18L26 17L24 17L24 18L23 18L23 17L22 17L22 16L20 16L20 14L19 14L19 13L20 13L20 12L18 12L18 13L15 13L15 14L16 14L16 15L14 15L14 16L13 16L13 17L12 17L12 15L13 15L13 14L12 14L12 13L10 13L10 12L9 12L9 13L8 13L8 15L4 15L4 14L3 14L3 13L2 13L2 16L4 16L4 17L3 17L3 19L1 19L1 20L3 20L3 21L2 21L2 23L3 23L3 22L4 22L4 24L8 24L8 21L10 21L10 20L9 20L9 19L6 19L6 20L5 20L5 18L7 18L7 17L8 17L8 18L13 18L13 19L12 19L12 21L11 21L11 22L10 22L10 24L11 24L11 26L13 26L13 27L12 27L12 29L15 29L15 30L17 30L17 31L14 31L14 32L19 32L19 33L20 33L20 32L21 32L21 33L22 33L22 34L21 34L21 35L24 35L24 36L26 36L26 34L27 34L27 35L28 35L28 34L27 34L27 33L24 33L24 34L23 34L23 33L22 33L22 32L21 32L21 31L22 31L22 30L23 30L23 32L28 32L28 30L26 30L26 29L25 29L25 28L26 28L26 27L25 27L25 24L27 24L27 25L26 25L26 26L29 26L29 24L27 24L27 23L26 23L26 21L24 21L24 22L23 22L23 20L24 20L24 18L26 18L26 19L25 19L25 20L26 20L26 19L27 19L27 18L28 18L28 17L29 17L29 18L31 18L31 21L30 21L30 22L29 22L29 23L30 23L30 24L31 24L31 25L30 25L30 26L31 26L31 25L32 25L32 24L31 24L31 23L30 23L30 22L31 22L31 21L32 21L32 22L34 22L34 23L33 23L33 24L36 24L36 23L35 23L35 21L34 21L34 20L36 20L36 19L34 19L34 17L32 17L32 16L33 16L33 15L34 15L34 16L35 16L35 17L36 17L36 15L34 15L34 13L32 13L32 12L31 12L31 13L30 13L30 14L31 14L31 13L32 13L32 15L31 15L31 17L29 17L29 16L30 16L30 15L29 15L29 14L28 14L28 13L29 13L29 12L28 12L28 13L27 13L27 10L28 10L28 11L29 11L29 10L28 10L28 9L26 9L26 10L25 10L25 9ZM9 10L9 11L10 11L10 10ZM35 10L35 11L34 11L34 12L35 12L35 13L36 13L36 12L35 12L35 11L36 11L36 10ZM21 12L21 15L22 15L22 14L23 14L23 13L22 13L22 12ZM6 13L6 14L7 14L7 13ZM16 15L16 16L14 16L14 17L18 17L18 16L17 16L17 15ZM5 16L5 17L7 17L7 16ZM9 16L9 17L11 17L11 16ZM1 17L1 18L2 18L2 17ZM19 17L19 18L15 18L15 19L14 19L14 20L16 20L16 21L17 21L17 23L18 23L18 22L20 22L20 23L19 23L19 24L16 24L16 22L15 22L15 21L12 21L12 22L13 22L13 23L12 23L12 25L13 25L13 24L14 24L14 25L15 25L15 24L16 24L16 25L19 25L19 26L21 26L21 27L20 27L20 29L19 29L19 28L16 28L16 27L17 27L17 26L15 26L15 27L14 27L14 28L15 28L15 29L17 29L17 30L18 30L18 31L19 31L19 32L20 32L20 31L21 31L21 28L23 28L23 30L24 30L24 28L25 28L25 27L24 27L24 28L23 28L23 27L22 27L22 25L23 25L23 26L24 26L24 25L23 25L23 24L25 24L25 23L23 23L23 22L22 22L22 23L21 23L21 21L20 21L20 20L23 20L23 18L21 18L21 17ZM31 17L31 18L32 18L32 19L33 19L33 18L32 18L32 17ZM19 18L19 19L16 19L16 20L20 20L20 18ZM28 19L28 21L27 21L27 22L28 22L28 21L29 21L29 19ZM4 20L4 21L5 21L5 22L6 22L6 23L7 23L7 22L6 22L6 21L7 21L7 20L6 20L6 21L5 21L5 20ZM32 20L32 21L33 21L33 20ZM14 23L14 24L15 24L15 23ZM20 24L20 25L22 25L22 24ZM27 27L27 28L28 28L28 27ZM29 27L29 28L30 28L30 27ZM18 29L18 30L19 30L19 31L20 31L20 30L19 30L19 29ZM29 29L29 32L32 32L32 29ZM25 30L25 31L26 31L26 30ZM30 30L30 31L31 31L31 30ZM34 30L34 31L33 31L33 34L32 34L32 33L31 33L31 34L29 34L29 36L31 36L31 34L32 34L32 35L33 35L33 36L36 36L36 35L35 35L35 33L34 33L34 32L35 32L35 30ZM15 34L15 35L14 35L14 36L15 36L15 37L19 37L19 35L18 35L18 36L17 36L17 34ZM24 34L24 35L25 35L25 34ZM33 34L33 35L34 35L34 34ZM10 35L10 36L11 36L11 35ZM15 35L15 36L16 36L16 35ZM0 0L0 7L7 7L7 0ZM1 1L1 6L6 6L6 1ZM2 2L2 5L5 5L5 2ZM30 0L30 7L37 7L37 0ZM31 1L31 6L36 6L36 1ZM32 2L32 5L35 5L35 2ZM0 30L0 37L7 37L7 30ZM1 31L1 36L6 36L6 31ZM2 32L2 35L5 35L5 32Z" fill="#000000"/></g></g></svg>
