<?xml version="1.0" encoding="UTF-8"?>
<svg xmlns="http://www.w3.org/2000/svg" version="1.1" width="200" height="200" viewBox="0 0 200 200"><rect x="0" y="0" width="200" height="200" fill="#ffffff"/><g transform="scale(5.405)"><g transform="translate(0,0)"><path fill-rule="evenodd" d="M9 0L9 1L8 1L8 2L9 2L9 3L8 3L8 4L10 4L10 7L11 7L11 4L12 4L12 5L13 5L13 6L12 6L12 9L13 9L13 8L14 8L14 9L15 9L15 8L16 8L16 9L18 9L18 8L16 8L16 7L17 7L17 5L14 5L14 4L12 4L12 2L14 2L14 1L15 1L15 4L18 4L18 7L19 7L19 10L20 10L20 8L22 8L22 9L21 9L21 10L22 10L22 9L23 9L23 10L24 10L24 12L25 12L25 14L26 14L26 16L24 16L24 15L23 15L23 14L24 14L24 13L23 13L23 11L21 11L21 12L20 12L20 11L18 11L18 12L16 12L16 11L17 11L17 10L15 10L15 11L14 11L14 12L15 12L15 13L12 13L12 11L13 11L13 10L11 10L11 11L10 11L10 9L11 9L11 8L6 8L6 9L7 9L7 10L4 10L4 11L3 11L3 10L2 10L2 9L5 9L5 8L0 8L0 10L2 10L2 12L1 12L1 11L0 11L0 16L1 16L1 15L2 15L2 18L1 18L1 17L0 17L0 18L1 18L1 19L3 19L3 21L2 21L2 20L1 20L1 21L0 21L0 23L1 23L1 24L0 24L0 29L1 29L1 26L2 26L2 28L3 28L3 29L4 29L4 28L5 28L5 27L4 27L4 28L3 28L3 26L5 26L5 25L8 25L8 26L9 26L9 27L11 27L11 29L12 29L12 30L13 30L13 31L12 31L12 33L13 33L13 32L14 32L14 33L17 33L17 34L18 34L18 35L19 35L19 34L20 34L20 37L21 37L21 36L22 36L22 37L26 37L26 36L29 36L29 37L32 37L32 36L33 36L33 37L37 37L37 32L36 32L36 31L37 31L37 30L35 30L35 28L34 28L34 29L33 29L33 27L31 27L31 26L32 26L32 25L35 25L35 27L36 27L36 28L37 28L37 26L36 26L36 25L37 25L37 22L36 22L36 21L37 21L37 18L36 18L36 17L37 17L37 14L36 14L36 13L37 13L37 12L36 12L36 11L37 11L37 10L36 10L36 8L35 8L35 9L34 9L34 8L33 8L33 11L30 11L30 10L29 10L29 9L30 9L30 8L29 8L29 4L28 4L28 5L27 5L27 6L26 6L26 8L25 8L25 6L24 6L24 8L22 8L22 7L23 7L23 5L24 5L24 4L27 4L27 3L29 3L29 2L28 2L28 1L29 1L29 0L28 0L28 1L26 1L26 0L25 0L25 1L24 1L24 0L22 0L22 1L21 1L21 0L19 0L19 1L20 1L20 2L18 2L18 3L17 3L17 2L16 2L16 1L15 1L15 0L14 0L14 1L11 1L11 2L10 2L10 0ZM22 1L22 2L24 2L24 3L21 3L21 2L20 2L20 3L18 3L18 4L20 4L20 3L21 3L21 7L22 7L22 5L23 5L23 4L24 4L24 3L27 3L27 2L26 2L26 1L25 1L25 2L24 2L24 1ZM10 3L10 4L11 4L11 3ZM8 5L8 7L9 7L9 5ZM19 5L19 7L20 7L20 5ZM13 6L13 7L14 7L14 8L15 8L15 7L16 7L16 6L15 6L15 7L14 7L14 6ZM27 6L27 7L28 7L28 6ZM31 8L31 9L32 9L32 8ZM24 9L24 10L25 10L25 12L26 12L26 14L28 14L28 15L27 15L27 16L28 16L28 17L27 17L27 18L26 18L26 17L24 17L24 18L23 18L23 17L22 17L22 16L20 16L20 14L19 14L19 13L20 13L20 12L18 12L18 13L15 13L15 14L16 14L16 16L18 16L18 17L14 17L14 16L15 16L15 15L14 15L14 16L13 16L13 17L12 17L12 15L13 15L13 14L12 14L12 13L8 13L8 12L7 12L7 11L6 11L6 12L7 12L7 13L6 13L6 14L5 14L5 13L4 13L4 14L3 14L3 12L2 12L2 13L1 13L1 14L3 14L3 15L4 15L4 16L5 16L5 15L6 15L6 16L7 16L7 17L6 17L6 18L7 18L7 17L11 17L11 18L8 18L8 19L6 19L6 20L5 20L5 21L6 21L6 22L3 22L3 25L2 25L2 26L3 26L3 25L4 25L4 23L6 23L6 24L8 24L8 23L6 23L6 22L9 22L9 24L10 24L10 25L11 25L11 26L13 26L13 27L12 27L12 29L15 29L15 30L16 30L16 31L14 31L14 32L18 32L18 30L19 30L19 31L20 31L20 32L19 32L19 33L18 33L18 34L19 34L19 33L20 33L20 32L21 32L21 33L22 33L22 34L21 34L21 35L24 35L24 36L26 36L26 34L27 34L27 35L28 35L28 34L27 34L27 33L24 33L24 34L23 34L23 33L22 33L22 32L21 32L21 31L22 31L22 30L23 30L23 32L28 32L28 30L26 30L26 29L25 29L25 28L26 28L26 27L25 27L25 24L27 24L27 25L26 25L26 26L29 26L29 24L27 24L27 23L26 23L26 21L24 21L24 22L23 22L23 20L24 20L24 18L26 18L26 19L25 19L25 20L26 20L26 19L27 19L27 18L28 18L28 17L29 17L29 18L31 18L31 21L30 21L30 22L29 22L29 23L30 23L30 24L31 24L31 25L30 25L30 26L31 26L31 25L32 25L32 24L31 24L31 23L30 23L30 22L31 22L31 21L32 21L32 22L34 22L34 23L33 23L33 24L36 24L36 23L35 23L35 21L34 21L34 20L36 20L36 19L34 19L34 17L32 17L32 16L33 16L33 15L34 15L34 16L35 16L35 17L36 17L36 15L34 15L34 13L32 13L32 12L31 12L31 13L30 13L30 14L31 14L31 13L32 13L32 15L31 15L31 17L29 17L29 16L30 16L30 15L29 15L29 14L28 14L28 13L29 13L29 12L28 12L28 13L27 13L27 10L28 10L28 11L29 11L29 10L28 10L28 9L26 9L26 10L25 10L25 9ZM8 10L8 11L9 11L9 10ZM35 10L35 11L34 11L34 12L35 12L35 13L36 13L36 12L35 12L35 11L36 11L36 10ZM4 11L4 12L5 12L5 11ZM21 12L21 15L22 15L22 14L23 14L23 13L22 13L22 12ZM7 13L7 14L6 14L6 15L7 15L7 14L8 14L8 13ZM9 14L9 15L10 15L10 16L11 16L11 14ZM19 17L19 18L15 18L15 19L14 19L14 20L15 20L15 21L12 21L12 19L13 19L13 18L11 18L11 19L10 19L10 20L8 20L8 21L9 21L9 22L10 22L10 23L11 23L11 22L10 22L10 20L11 20L11 21L12 21L12 22L13 22L13 23L12 23L12 25L13 25L13 24L14 24L14 25L19 25L19 26L21 26L21 27L20 27L20 29L19 29L19 27L18 27L18 26L15 26L15 27L14 27L14 28L15 28L15 29L19 29L19 30L20 30L20 31L21 31L21 28L23 28L23 30L24 30L24 28L25 28L25 27L24 27L24 28L23 28L23 27L22 27L22 25L23 25L23 26L24 26L24 25L23 25L23 24L25 24L25 23L23 23L23 22L22 22L22 23L21 23L21 21L20 21L20 20L23 20L23 18L21 18L21 17ZM31 17L31 18L32 18L32 19L33 19L33 18L32 18L32 17ZM4 18L4 19L5 19L5 18ZM19 18L19 19L17 19L17 20L20 20L20 18ZM15 19L15 20L16 20L16 19ZM28 19L28 21L27 21L27 22L28 22L28 21L29 21L29 19ZM6 20L6 21L7 21L7 20ZM32 20L32 21L33 21L33 20ZM15 21L15 22L17 22L17 21ZM18 22L18 23L17 23L17 24L19 24L19 23L20 23L20 22ZM14 23L14 24L15 24L15 23ZM20 24L20 25L22 25L22 24ZM6 26L6 27L7 27L7 28L6 28L6 29L8 29L8 31L10 31L10 32L8 32L8 37L9 37L9 36L10 36L10 37L12 37L12 35L13 35L13 34L10 34L10 33L11 33L11 31L10 31L10 30L9 30L9 29L10 29L10 28L8 28L8 27L7 27L7 26ZM15 27L15 28L16 28L16 27ZM17 27L17 28L18 28L18 27ZM27 27L27 28L28 28L28 27ZM29 27L29 28L30 28L30 27ZM29 29L29 32L32 32L32 29ZM25 30L25 31L26 31L26 30ZM30 30L30 31L31 31L31 30ZM34 30L34 31L33 31L33 34L32 34L32 33L31 33L31 34L29 34L29 36L31 36L31 34L32 34L32 35L33 35L33 36L36 36L36 35L35 35L35 33L34 33L34 32L35 32L35 30ZM9 34L9 35L10 35L10 36L11 36L11 35L10 35L10 34ZM15 34L15 35L14 35L14 36L15 36L15 37L19 37L19 36L17 36L17 35L16 35L16 34ZM24 34L24 35L25 35L25 34ZM33 34L33 35L34 35L34 34ZM15 35L15 36L16 36L16 35ZM0 0L0 7L7 7L7 0ZM1 1L1 6L6 6L6 1ZM2 2L2 5L5 5L5 2ZM30 0L30 7L37 7L37 0ZM31 1L31 6L36 6L36 1ZM32 2L32 5L35 5L35 2ZM0 30L0 37L7 37L7 30ZM1 31L1 36L6 36L6 31ZM2 32L2 35L5 35L5 32Z" fill="#000000"/></g></g></svg>
