<?xml version="1.0" encoding="UTF-8"?>
<svg xmlns="http://www.w3.org/2000/svg" version="1.1" width="200" height="200" viewBox="0 0 200 200"><rect x="0" y="0" width="200" height="200" fill="#ffffff"/><g transform="scale(6.061)"><g transform="translate(0,0)"><path fill-rule="evenodd" d="M9 0L9 1L8 1L8 2L9 2L9 3L8 3L8 4L10 4L10 7L11 7L11 4L12 4L12 5L13 5L13 6L12 6L12 9L13 9L13 8L14 8L14 9L15 9L15 8L16 8L16 9L18 9L18 8L16 8L16 7L17 7L17 5L14 5L14 4L12 4L12 2L13 2L13 1L11 1L11 2L10 2L10 0ZM14 0L14 2L17 2L17 1L15 1L15 0ZM19 0L19 1L20 1L20 2L21 2L21 3L23 3L23 5L22 5L22 7L21 7L21 6L20 6L20 9L19 9L19 10L17 10L17 11L16 11L16 10L15 10L15 11L14 11L14 12L15 12L15 13L12 13L12 11L13 11L13 10L11 10L11 11L10 11L10 9L11 9L11 8L6 8L6 9L7 9L7 10L5 10L5 8L0 8L0 9L1 9L1 10L2 10L2 9L3 9L3 11L4 11L4 10L5 10L5 11L7 11L7 10L8 10L8 9L9 9L9 11L8 11L8 12L9 12L9 13L10 13L10 14L11 14L11 13L12 13L12 14L13 14L13 15L12 15L12 17L13 17L13 16L14 16L14 17L19 17L19 18L20 18L20 16L22 16L22 17L21 17L21 18L22 18L22 17L23 17L23 18L24 18L24 19L21 19L21 20L20 20L20 19L19 19L19 20L16 20L16 19L17 19L17 18L15 18L15 19L14 19L14 20L15 20L15 21L12 21L12 19L13 19L13 18L11 18L11 15L10 15L10 16L9 16L9 15L8 15L8 13L7 13L7 12L6 12L6 13L7 13L7 14L5 14L5 15L4 15L4 16L3 16L3 15L2 15L2 14L4 14L4 13L3 13L3 12L2 12L2 11L1 11L1 13L2 13L2 14L0 14L0 16L1 16L1 18L0 18L0 19L1 19L1 21L0 21L0 25L1 25L1 22L2 22L2 23L3 23L3 24L4 24L4 25L8 25L8 27L9 27L9 28L8 28L8 33L10 33L10 32L11 32L11 30L10 30L10 29L12 29L12 30L13 30L13 31L12 31L12 33L13 33L13 32L14 32L14 33L20 33L20 32L22 32L22 33L28 33L28 32L29 32L29 33L30 33L30 32L31 32L31 33L32 33L32 32L31 32L31 30L33 30L33 28L31 28L31 27L32 27L32 26L33 26L33 24L32 24L32 26L31 26L31 25L30 25L30 26L29 26L29 24L31 24L31 23L32 23L32 22L33 22L33 21L32 21L32 20L31 20L31 19L32 19L32 18L33 18L33 17L32 17L32 16L31 16L31 15L32 15L32 14L33 14L33 13L31 13L31 15L30 15L30 16L31 16L31 19L30 19L30 17L29 17L29 16L28 16L28 15L29 15L29 14L28 14L28 13L30 13L30 12L31 12L31 11L32 11L32 10L33 10L33 9L32 9L32 8L31 8L31 9L30 9L30 8L29 8L29 9L30 9L30 10L27 10L27 9L28 9L28 8L27 8L27 9L26 9L26 8L25 8L25 6L24 6L24 7L23 7L23 5L24 5L24 4L25 4L25 3L24 3L24 2L23 2L23 1L24 1L24 0L23 0L23 1L21 1L21 0ZM18 2L18 3L15 3L15 4L18 4L18 3L19 3L19 2ZM10 3L10 4L11 4L11 3ZM19 4L19 5L21 5L21 4ZM8 5L8 7L9 7L9 5ZM13 6L13 7L14 7L14 8L15 8L15 7L16 7L16 6L15 6L15 7L14 7L14 6ZM18 6L18 7L19 7L19 6ZM21 8L21 9L22 9L22 11L24 11L24 12L25 12L25 11L24 11L24 10L26 10L26 9L24 9L24 8L23 8L23 9L22 9L22 8ZM23 9L23 10L24 10L24 9ZM19 10L19 11L17 11L17 12L19 12L19 13L20 13L20 12L21 12L21 15L22 15L22 14L23 14L23 16L24 16L24 18L25 18L25 19L24 19L24 20L23 20L23 21L24 21L24 22L23 22L23 24L24 24L24 23L25 23L25 24L29 24L29 21L30 21L30 23L31 23L31 20L30 20L30 19L27 19L27 18L29 18L29 17L28 17L28 16L27 16L27 15L26 15L26 14L23 14L23 12L21 12L21 11L20 11L20 10ZM30 10L30 11L29 11L29 12L30 12L30 11L31 11L31 10ZM19 11L19 12L20 12L20 11ZM26 11L26 13L27 13L27 12L28 12L28 11ZM10 12L10 13L11 13L11 12ZM15 13L15 14L17 14L17 13ZM18 14L18 15L17 15L17 16L19 16L19 15L20 15L20 14ZM1 15L1 16L2 16L2 15ZM5 15L5 16L4 16L4 17L3 17L3 18L4 18L4 19L2 19L2 21L3 21L3 23L4 23L4 21L6 21L6 22L5 22L5 24L7 24L7 23L8 23L8 24L9 24L9 21L8 21L8 19L6 19L6 18L8 18L8 17L9 17L9 16L7 16L7 15ZM14 15L14 16L15 16L15 15ZM24 15L24 16L25 16L25 18L27 18L27 17L26 17L26 15ZM5 16L5 18L6 18L6 17L7 17L7 16ZM9 18L9 19L11 19L11 18ZM5 19L5 20L6 20L6 21L7 21L7 20L6 20L6 19ZM25 19L25 20L24 20L24 21L26 21L26 23L28 23L28 22L27 22L27 21L29 21L29 20L27 20L27 19ZM3 20L3 21L4 21L4 20ZM19 20L19 21L18 21L18 22L17 22L17 21L15 21L15 22L16 22L16 23L14 23L14 24L13 24L13 25L12 25L12 23L13 23L13 22L12 22L12 21L11 21L11 23L10 23L10 25L11 25L11 26L10 26L10 27L11 27L11 26L13 26L13 27L12 27L12 29L15 29L15 30L17 30L17 31L14 31L14 32L19 32L19 31L20 31L20 30L19 30L19 29L18 29L18 30L17 30L17 29L15 29L15 28L14 28L14 27L15 27L15 26L16 26L16 27L17 27L17 28L18 28L18 27L19 27L19 28L20 28L20 29L22 29L22 28L20 28L20 26L19 26L19 25L22 25L22 24L20 24L20 22L19 22L19 21L20 21L20 20ZM21 20L21 21L22 21L22 20ZM26 20L26 21L27 21L27 20ZM6 22L6 23L7 23L7 22ZM18 22L18 23L19 23L19 22ZM14 24L14 25L19 25L19 24ZM23 25L23 26L21 26L21 27L23 27L23 26L24 26L24 25ZM25 25L25 28L28 28L28 25ZM26 26L26 27L27 27L27 26ZM30 26L30 27L31 27L31 26ZM23 28L23 31L22 31L22 32L23 32L23 31L24 31L24 32L25 32L25 31L26 31L26 30L27 30L27 31L29 31L29 30L30 30L30 29L31 29L31 28L29 28L29 30L28 30L28 29L26 29L26 30L25 30L25 31L24 31L24 28ZM18 30L18 31L19 31L19 30ZM0 0L0 7L7 7L7 0ZM1 1L1 6L6 6L6 1ZM2 2L2 5L5 5L5 2ZM26 0L26 7L33 7L33 0ZM27 1L27 6L32 6L32 1ZM28 2L28 5L31 5L31 2ZM0 26L0 33L7 33L7 26ZM1 27L1 32L6 32L6 27ZM2 28L2 31L5 31L5 28Z" fill="#000000"/></g></g></svg>
