<?xml version="1.0" encoding="UTF-8"?>
<svg xmlns="http://www.w3.org/2000/svg" version="1.1" width="200" height="200" viewBox="0 0 200 200"><rect x="0" y="0" width="200" height="200" fill="#ffffff"/><g transform="scale(6.061)"><g transform="translate(0,0)"><path fill-rule="evenodd" d="M9 0L9 1L8 1L8 2L9 2L9 3L8 3L8 4L10 4L10 7L11 7L11 4L12 4L12 5L13 5L13 6L12 6L12 9L13 9L13 8L14 8L14 9L18 9L18 8L14 8L14 7L15 7L15 6L16 6L16 7L17 7L17 5L14 5L14 4L12 4L12 2L13 2L13 1L11 1L11 2L10 2L10 0ZM14 0L14 2L16 2L16 3L15 3L15 4L18 4L18 3L19 3L19 2L18 2L18 3L17 3L17 1L15 1L15 0ZM19 0L19 1L20 1L20 2L21 2L21 3L23 3L23 5L22 5L22 7L21 7L21 6L20 6L20 9L19 9L19 10L17 10L17 11L19 11L19 12L16 12L16 10L15 10L15 11L14 11L14 12L16 12L16 13L17 13L17 15L16 15L16 14L15 14L15 13L12 13L12 11L13 11L13 10L11 10L11 11L10 11L10 9L11 9L11 8L6 8L6 9L5 9L5 8L0 8L0 9L1 9L1 11L2 11L2 13L1 13L1 12L0 12L0 14L1 14L1 15L0 15L0 20L1 20L1 21L0 21L0 25L1 25L1 22L2 22L2 23L3 23L3 22L2 22L2 21L4 21L4 22L5 22L5 23L4 23L4 24L5 24L5 25L8 25L8 27L9 27L9 28L8 28L8 33L9 33L9 32L10 32L10 33L11 33L11 31L10 31L10 30L11 30L11 29L12 29L12 30L13 30L13 31L12 31L12 33L13 33L13 32L14 32L14 33L20 33L20 32L22 32L22 33L28 33L28 32L29 32L29 33L30 33L30 32L31 32L31 33L32 33L32 32L31 32L31 30L33 30L33 28L31 28L31 27L32 27L32 26L33 26L33 24L32 24L32 26L31 26L31 25L30 25L30 26L29 26L29 24L31 24L31 23L32 23L32 22L33 22L33 21L32 21L32 20L31 20L31 19L32 19L32 18L33 18L33 17L32 17L32 16L31 16L31 15L32 15L32 14L33 14L33 13L31 13L31 15L30 15L30 16L31 16L31 19L30 19L30 17L29 17L29 16L28 16L28 15L29 15L29 14L28 14L28 13L30 13L30 12L31 12L31 11L32 11L32 10L33 10L33 9L32 9L32 8L31 8L31 9L30 9L30 8L29 8L29 9L30 9L30 10L27 10L27 9L28 9L28 8L27 8L27 9L26 9L26 8L25 8L25 6L24 6L24 7L23 7L23 5L24 5L24 4L25 4L25 3L24 3L24 2L23 2L23 1L24 1L24 0L23 0L23 1L21 1L21 0ZM10 3L10 4L11 4L11 3ZM19 4L19 5L21 5L21 4ZM8 5L8 7L9 7L9 5ZM13 6L13 7L14 7L14 6ZM18 6L18 7L19 7L19 6ZM21 8L21 9L22 9L22 11L24 11L24 12L25 12L25 11L24 11L24 10L26 10L26 9L24 9L24 8L23 8L23 9L22 9L22 8ZM2 9L2 11L3 11L3 9ZM6 9L6 10L8 10L8 11L6 11L6 12L7 12L7 13L6 13L6 14L4 14L4 12L5 12L5 10L4 10L4 12L3 12L3 14L2 14L2 16L1 16L1 20L2 20L2 19L4 19L4 21L6 21L6 22L9 22L9 21L6 21L6 20L10 20L10 21L11 21L11 22L10 22L10 24L11 24L11 26L13 26L13 27L12 27L12 29L15 29L15 30L19 30L19 31L20 31L20 30L19 30L19 29L15 29L15 28L18 28L18 27L19 27L19 28L20 28L20 29L22 29L22 28L20 28L20 26L19 26L19 25L22 25L22 24L20 24L20 22L19 22L19 21L20 21L20 20L21 20L21 21L22 21L22 20L21 20L21 19L24 19L24 20L23 20L23 21L24 21L24 22L23 22L23 24L24 24L24 23L25 23L25 24L29 24L29 21L30 21L30 23L31 23L31 20L30 20L30 19L27 19L27 18L29 18L29 17L28 17L28 16L27 16L27 15L26 15L26 14L23 14L23 12L21 12L21 11L20 11L20 10L19 10L19 11L20 11L20 12L19 12L19 13L20 13L20 12L21 12L21 15L22 15L22 14L23 14L23 16L24 16L24 18L23 18L23 17L22 17L22 16L20 16L20 18L19 18L19 17L14 17L14 16L15 16L15 15L14 15L14 16L13 16L13 17L12 17L12 15L13 15L13 14L12 14L12 13L11 13L11 12L10 12L10 13L9 13L9 12L8 12L8 11L9 11L9 10L8 10L8 9ZM23 9L23 10L24 10L24 9ZM30 10L30 11L29 11L29 12L30 12L30 11L31 11L31 10ZM26 11L26 13L27 13L27 12L28 12L28 11ZM8 13L8 14L9 14L9 15L8 15L8 16L6 16L6 15L7 15L7 14L6 14L6 15L4 15L4 14L3 14L3 18L4 18L4 17L5 17L5 19L7 19L7 18L6 18L6 17L8 17L8 16L11 16L11 13L10 13L10 14L9 14L9 13ZM18 14L18 15L17 15L17 16L19 16L19 15L20 15L20 14ZM24 15L24 16L25 16L25 18L24 18L24 19L25 19L25 20L24 20L24 21L26 21L26 23L28 23L28 22L27 22L27 21L29 21L29 20L27 20L27 19L25 19L25 18L27 18L27 17L26 17L26 15ZM5 16L5 17L6 17L6 16ZM9 17L9 18L8 18L8 19L9 19L9 18L11 18L11 19L10 19L10 20L11 20L11 21L12 21L12 22L13 22L13 23L12 23L12 25L13 25L13 24L14 24L14 25L19 25L19 22L18 22L18 24L16 24L16 22L15 22L15 21L19 21L19 20L20 20L20 19L18 19L18 18L17 18L17 19L16 19L16 18L15 18L15 19L14 19L14 20L15 20L15 21L12 21L12 19L13 19L13 18L11 18L11 17ZM21 17L21 18L22 18L22 17ZM15 19L15 20L16 20L16 19ZM17 19L17 20L18 20L18 19ZM26 20L26 21L27 21L27 20ZM6 23L6 24L7 24L7 23ZM8 23L8 25L9 25L9 23ZM14 23L14 24L15 24L15 23ZM23 25L23 26L21 26L21 27L23 27L23 26L24 26L24 25ZM25 25L25 28L28 28L28 25ZM15 26L15 27L14 27L14 28L15 28L15 27L16 27L16 26ZM17 26L17 27L18 27L18 26ZM26 26L26 27L27 27L27 26ZM30 26L30 27L31 27L31 26ZM10 27L10 28L9 28L9 30L10 30L10 29L11 29L11 27ZM23 28L23 31L22 31L22 32L23 32L23 31L24 31L24 32L25 32L25 31L26 31L26 30L27 30L27 31L29 31L29 30L30 30L30 29L31 29L31 28L29 28L29 30L28 30L28 29L26 29L26 30L25 30L25 31L24 31L24 28ZM14 31L14 32L18 32L18 31ZM0 0L0 7L7 7L7 0ZM1 1L1 6L6 6L6 1ZM2 2L2 5L5 5L5 2ZM26 0L26 7L33 7L33 0ZM27 1L27 6L32 6L32 1ZM28 2L28 5L31 5L31 2ZM0 26L0 33L7 33L7 26ZM1 27L1 32L6 32L6 27ZM2 28L2 31L5 31L5 28Z" fill="#000000"/></g></g></svg>
