<?xml version="1.0" encoding="UTF-8"?>
<svg xmlns="http://www.w3.org/2000/svg" version="1.1" width="200" height="200" viewBox="0 0 200 200"><rect x="0" y="0" width="200" height="200" fill="#ffffff"/><g transform="scale(5.405)"><g transform="translate(0,0)"><path fill-rule="evenodd" d="M9 0L9 1L8 1L8 2L9 2L9 3L8 3L8 4L10 4L10 7L11 7L11 4L12 4L12 5L13 5L13 6L12 6L12 9L13 9L13 8L14 8L14 9L15 9L15 10L17 10L17 11L16 11L16 13L12 13L12 11L13 11L13 10L10 10L10 9L11 9L11 8L6 8L6 9L9 9L9 10L10 10L10 11L11 11L11 12L10 12L10 13L12 13L12 14L13 14L13 15L12 15L12 17L13 17L13 16L14 16L14 17L15 17L15 18L17 18L17 19L16 19L16 21L12 21L12 19L13 19L13 18L11 18L11 20L10 20L10 19L8 19L8 21L7 21L7 20L6 20L6 19L7 19L7 18L6 18L6 17L9 17L9 18L10 18L10 17L11 17L11 14L10 14L10 15L9 15L9 14L8 14L8 12L2 12L2 11L1 11L1 10L2 10L2 9L4 9L4 10L5 10L5 11L7 11L7 10L5 10L5 8L0 8L0 9L1 9L1 10L0 10L0 11L1 11L1 12L2 12L2 13L0 13L0 15L1 15L1 16L0 16L0 17L2 17L2 16L5 16L5 15L7 15L7 16L6 16L6 17L5 17L5 18L4 18L4 17L3 17L3 20L4 20L4 21L3 21L3 22L4 22L4 21L5 21L5 20L6 20L6 21L7 21L7 22L5 22L5 24L4 24L4 23L3 23L3 24L2 24L2 21L1 21L1 20L2 20L2 19L0 19L0 23L1 23L1 24L2 24L2 25L0 25L0 29L1 29L1 26L3 26L3 24L4 24L4 26L5 26L5 24L6 24L6 25L7 25L7 26L6 26L6 27L5 27L5 28L4 28L4 27L3 27L3 28L2 28L2 29L8 29L8 31L9 31L9 32L8 32L8 37L9 37L9 34L10 34L10 35L11 35L11 36L10 36L10 37L12 37L12 35L13 35L13 34L11 34L11 33L10 33L10 32L11 32L11 29L12 29L12 30L13 30L13 31L12 31L12 33L13 33L13 32L14 32L14 33L17 33L17 34L15 34L15 35L14 35L14 36L15 36L15 37L19 37L19 36L20 36L20 37L21 37L21 36L22 36L22 37L23 37L23 34L24 34L24 33L23 33L23 34L22 34L22 35L21 35L21 32L22 32L22 31L20 31L20 33L19 33L19 31L18 31L18 32L17 32L17 31L16 31L16 29L12 29L12 27L13 27L13 26L10 26L10 24L9 24L9 25L7 25L7 24L8 24L8 23L10 23L10 22L11 22L11 21L12 21L12 22L13 22L13 23L12 23L12 25L13 25L13 24L14 24L14 25L15 25L15 26L17 26L17 25L19 25L19 26L20 26L20 27L21 27L21 28L22 28L22 29L19 29L19 28L17 28L17 27L16 27L16 28L17 28L17 29L19 29L19 30L24 30L24 32L25 32L25 33L26 33L26 34L25 34L25 35L24 35L24 37L28 37L28 36L29 36L29 37L32 37L32 36L30 36L30 35L28 35L28 34L29 34L29 33L30 33L30 34L31 34L31 35L32 35L32 34L34 34L34 35L36 35L36 36L34 36L34 37L37 37L37 33L36 33L36 31L37 31L37 30L35 30L35 32L34 32L34 33L33 33L33 31L34 31L34 29L35 29L35 28L34 28L34 29L33 29L33 28L31 28L31 27L32 27L32 25L33 25L33 27L34 27L34 26L35 26L35 27L36 27L36 28L37 28L37 26L36 26L36 25L37 25L37 22L36 22L36 21L37 21L37 18L36 18L36 17L37 17L37 14L36 14L36 13L37 13L37 12L36 12L36 11L37 11L37 10L36 10L36 8L35 8L35 9L34 9L34 8L33 8L33 11L32 11L32 12L30 12L30 13L29 13L29 12L27 12L27 11L29 11L29 10L30 10L30 11L31 11L31 10L30 10L30 8L28 8L28 7L29 7L29 5L26 5L26 4L27 4L27 2L28 2L28 3L29 3L29 2L28 2L28 1L29 1L29 0L28 0L28 1L27 1L27 2L26 2L26 1L25 1L25 2L26 2L26 3L24 3L24 2L21 2L21 1L22 1L22 0L21 0L21 1L20 1L20 0L19 0L19 1L20 1L20 2L21 2L21 3L19 3L19 2L18 2L18 3L17 3L17 2L16 2L16 4L12 4L12 2L13 2L13 1L11 1L11 2L10 2L10 0ZM15 0L15 1L17 1L17 0ZM23 0L23 1L24 1L24 0ZM14 2L14 3L15 3L15 2ZM10 3L10 4L11 4L11 3ZM21 3L21 4L20 4L20 5L19 5L19 4L18 4L18 5L17 5L17 4L16 4L16 5L17 5L17 7L16 7L16 6L15 6L15 7L14 7L14 6L13 6L13 7L14 7L14 8L15 8L15 7L16 7L16 9L17 9L17 10L19 10L19 11L17 11L17 12L19 12L19 11L20 11L20 10L21 10L21 11L24 11L24 12L26 12L26 11L25 11L25 9L24 9L24 10L21 10L21 9L22 9L22 8L21 8L21 9L20 9L20 5L21 5L21 4L22 4L22 3ZM8 5L8 7L9 7L9 5ZM18 5L18 7L19 7L19 5ZM23 5L23 8L27 8L27 9L26 9L26 10L29 10L29 9L28 9L28 8L27 8L27 7L28 7L28 6L27 6L27 7L26 7L26 5ZM21 6L21 7L22 7L22 6ZM24 6L24 7L25 7L25 6ZM17 8L17 9L19 9L19 10L20 10L20 9L19 9L19 8ZM31 8L31 9L32 9L32 8ZM35 10L35 11L34 11L34 12L35 12L35 13L36 13L36 12L35 12L35 11L36 11L36 10ZM14 11L14 12L15 12L15 11ZM20 12L20 14L19 14L19 13L16 13L16 14L17 14L17 15L16 15L16 17L17 17L17 18L19 18L19 21L16 21L16 22L17 22L17 23L16 23L16 25L17 25L17 24L19 24L19 25L20 25L20 23L21 23L21 22L23 22L23 23L25 23L25 24L23 24L23 25L22 25L22 24L21 24L21 25L22 25L22 26L23 26L23 29L24 29L24 30L25 30L25 32L26 32L26 31L28 31L28 28L29 28L29 25L30 25L30 26L31 26L31 25L32 25L32 24L36 24L36 23L35 23L35 21L34 21L34 20L36 20L36 19L34 19L34 17L32 17L32 16L31 16L31 17L30 17L30 14L32 14L32 15L34 15L34 16L35 16L35 17L36 17L36 15L34 15L34 13L30 13L30 14L29 14L29 13L27 13L27 14L28 14L28 16L27 16L27 17L24 17L24 16L23 16L23 15L25 15L25 16L26 16L26 13L24 13L24 14L23 14L23 15L22 15L22 16L21 16L21 15L20 15L20 14L21 14L21 13L22 13L22 12ZM4 13L4 14L2 14L2 15L4 15L4 14L7 14L7 13ZM14 15L14 16L15 16L15 15ZM18 15L18 16L17 16L17 17L19 17L19 18L20 18L20 21L19 21L19 22L18 22L18 23L19 23L19 22L21 22L21 20L22 20L22 21L23 21L23 22L25 22L25 23L26 23L26 24L25 24L25 25L29 25L29 24L28 24L28 23L30 23L30 25L31 25L31 23L34 23L34 21L33 21L33 18L30 18L30 17L29 17L29 16L28 16L28 17L29 17L29 18L26 18L26 19L28 19L28 20L24 20L24 19L25 19L25 18L24 18L24 17L23 17L23 16L22 16L22 17L23 17L23 18L22 18L22 19L21 19L21 16L20 16L20 15ZM19 16L19 17L20 17L20 16ZM23 18L23 19L24 19L24 18ZM29 18L29 21L27 21L27 22L29 22L29 21L30 21L30 22L31 22L31 21L32 21L32 22L33 22L33 21L32 21L32 19L30 19L30 18ZM14 19L14 20L15 20L15 19ZM17 19L17 20L18 20L18 19ZM30 20L30 21L31 21L31 20ZM8 21L8 22L9 22L9 21ZM25 21L25 22L26 22L26 21ZM6 23L6 24L7 24L7 23ZM14 23L14 24L15 24L15 23ZM23 25L23 26L24 26L24 28L25 28L25 30L27 30L27 28L28 28L28 26L27 26L27 27L26 27L26 28L25 28L25 26L24 26L24 25ZM7 26L7 27L6 27L6 28L7 28L7 27L8 27L8 28L9 28L9 26ZM10 27L10 29L9 29L9 31L10 31L10 29L11 29L11 27ZM14 27L14 28L15 28L15 27ZM29 29L29 32L32 32L32 29ZM30 30L30 31L31 31L31 30ZM14 31L14 32L15 32L15 31ZM18 33L18 34L17 34L17 35L15 35L15 36L19 36L19 35L20 35L20 36L21 36L21 35L20 35L20 34L19 34L19 33ZM31 33L31 34L32 34L32 33ZM34 33L34 34L36 34L36 33ZM18 34L18 35L19 35L19 34ZM26 34L26 35L25 35L25 36L26 36L26 35L27 35L27 36L28 36L28 35L27 35L27 34ZM0 0L0 7L7 7L7 0ZM1 1L1 6L6 6L6 1ZM2 2L2 5L5 5L5 2ZM30 0L30 7L37 7L37 0ZM31 1L31 6L36 6L36 1ZM32 2L32 5L35 5L35 2ZM0 30L0 37L7 37L7 30ZM1 31L1 36L6 36L6 31ZM2 32L2 35L5 35L5 32Z" fill="#000000"/></g></g></svg>
